<?xml version="1.0" encoding="iso-8859-1"?>
<!-- Generator: Adobe Illustrator 19.0.0, SVG Export Plug-In . SVG Version: 6.00 Build 0)  -->
<svg version="1.1" id="Layer_1" xmlns="http://www.w3.org/2000/svg" xmlns:xlink="http://www.w3.org/1999/xlink" x="0px" y="0px"
	 viewBox="0 0 189.936 189.936" style="enable-background:new 0 0 189.936 189.936;" xml:space="preserve" fill="white">
<g>
	<g>
		<path d="M189.101,135.976c-1.319-2.378-3.978-3.742-7.296-3.742h-2.028c-0.477-4.375-2.845-9.886-9.769-13.232
			c-2.755-1.332-5.7-1.729-8.776-1.619c-3.065-2.996-7.32-5.358-13.177-6.192c-4.963-0.705-10.709-2.423-16.265-4.087
			c-13.629-4.074-29.074-8.692-33.947,3.352c-0.824,2.038-2.137,4.008-3.72,5.875c-2.8,0.095-5.927,0.358-9.504,0.863
			c-21.279,3.001-26.99,10.457-28.462,15.038H52.48V47.25c0-2.04-1.655-3.695-3.695-3.695c-2.04,0-3.695,1.655-3.695,3.695v84.983
			H37.7V39.337l37.28-1.775l109.741,21.413l1.414-7.253l-80.14-15.637l79.673-3.794l-0.352-7.381L75.52,30.139l-48.129-9.39
			l-1.415,7.253l4.334,0.845v3.446l-7.561,0.36l0.352,7.381l7.21-0.343v92.545H8.137c-3.325,0-5.988,1.362-7.305,3.74
			c-1.317,2.378-1.061,5.36,0.705,8.184l10.635,17.019c2.852,4.565,9.07,8.007,14.462,8.007h136.672
			c5.391,0,11.608-3.442,14.462-8.007l10.637-17.02C190.168,141.338,190.42,138.358,189.101,135.976z M37.7,30.289l6.805,1.328
			L37.7,31.941V30.289z M166.792,125.657c3.855,1.861,5.137,4.531,5.538,6.578h-4.198c-0.193-2.014-0.688-4.318-1.593-6.668
			C166.62,125.602,166.712,125.618,166.792,125.657z M104.697,113.231c2.185-5.409,11.309-3.132,24.975,0.957
			c5.817,1.739,11.83,3.538,17.342,4.323c1.199,0.17,2.26,0.449,3.26,0.771c-0.943,0.243-1.891,0.496-2.847,0.752
			c-5.99,1.597-12.184,3.249-18.745,3.249c-5.734,0-9.142-1.38-13.087-2.979c-3.485-1.409-7.233-2.916-12.682-3.615
			C103.594,115.562,104.218,114.415,104.697,113.231z M97.316,123.692c7.298,0.145,11.452,1.82,15.503,3.462
			c4.272,1.73,8.689,3.518,15.862,3.518c7.531,0,14.5-1.86,20.651-3.5c3.157-0.842,6.104-1.612,8.792-2.056
			c1.661,2.552,2.314,5.257,2.565,7.118H86.71C90.149,129.95,93.97,127.045,97.316,123.692z M84.676,124.67
			c-5.63,3.973-10.822,6.496-10.923,6.545c-0.512,0.245-0.918,0.606-1.253,1.019h-7.855C67.073,129.698,72.764,126.48,84.676,124.67
			z M182.139,140.241l-10.635,17.019c-1.485,2.373-5.391,4.534-8.196,4.534H26.635c-2.806,0-6.711-2.162-8.195-4.532l-10.637-17.02
			c0,0,0-0.002-0.002-0.002c-0.139-0.224-0.235-0.415-0.298-0.568c0.162-0.027,0.372-0.047,0.633-0.047h167.871
			c0.006,0,0.011,0.002,0.017,0.002c0,0,0.007-0.002,0.011-0.002h5.77c0.262,0,0.471,0.02,0.631,0.047
			C182.375,139.825,182.28,140.016,182.139,140.241z"/>
	</g>
</g>
<g>
</g>
<g>
</g>
<g>
</g>
<g>
</g>
<g>
</g>
<g>
</g>
<g>
</g>
<g>
</g>
<g>
</g>
<g>
</g>
<g>
</g>
<g>
</g>
<g>
</g>
<g>
</g>
<g>
</g>
</svg>
